<svg xmlns="http://www.w3.org/2000/svg" viewBox="0 0 16 16" width="16" height="16">
  <path d="M9.585.52a2.678 2.678 0 0 0-3.17 0l-.928.68a1.178 1.178 0 0 1-.518.215L3.83 1.59a2.678 2.678 0 0 0-2.24 2.24l-.175 1.14a1.178 1.178 0 0 1-.215.518l-.68.928a2.678 2.678 0 0 0 0 3.17l.68.928c.113.153.186.33.215.518l.175 1.138a2.678 2.678 0 0 0 2.24 2.24l1.138.175c.187.029.365.102.518.215l.928.68a2.678 2.678 0 0 0 3.17 0l.928-.68a1.17 1.17 0 0 1 .518-.215l1.138-.175a2.678 2.678 0 0 0 2.241-2.24l.175-1.138c.029-.187.102-.365.215-.518l.68-.928a2.678 2.678 0 0 0 0-3.17l-.68-.928a1.179 1.179 0 0 1-.215-.518L14.41 3.83a2.678 2.678 0 0 0-2.24-2.24l-1.138-.175a1.179 1.179 0 0 1-.518-.215L9.585.52z" fill="#6366f1"/>
  <polyline points="4.8,8 7,10.2 11.2,5.8" stroke="white" stroke-width="1.8" stroke-linecap="round" stroke-linejoin="round" fill="none"/>
</svg>
