<svg xmlns="http://www.w3.org/2000/svg" viewBox="0 0 16 16" width="16" height="16">
  <path fill-rule="evenodd" d="M9.585.52a2.678 2.678 0 00-3.17 0l-.928.68a1.178 1.178 0 01-.518.215L3.83 1.59a2.678 2.678 0 00-2.24 2.24l-.175 1.14a1.178 1.178 0 01-.215.518l-.68.928a2.678 2.678 0 000 3.17l.68.928c.113.153.186.33.215.518l.175 1.138a2.678 2.678 0 002.24 2.24l1.138.175c.187.029.365.102.518.215l.928.68a2.678 2.678 0 003.17 0l.928-.68a1.17 1.17 0 01.518-.215l1.138-.175a2.678 2.678 0 002.241-2.24l.175-1.138c.029-.187.102-.365.215-.518l.68-.928a2.678 2.678 0 000-3.17l-.68-.928a1.179 1.179 0 01-.215-.518L14.41 3.83a2.678 2.678 0 00-2.24-2.24l-1.138-.175a1.179 1.179 0 01-.518-.215L9.585.52zM7.303 7.482L6.236 6.414a.75.75 0 10-1.06 1.06l1.5 1.5a.75.75 0 001.137-.089l2.657-3.392a.75.75 0 00-1.18-.926L7.303 7.482z" fill="#1a1a2e"/>
</svg>
